<?xml version="1.0" encoding="utf-8"?>
<!-- Generator: Adobe Illustrator 21.1.0, SVG Export Plug-In . SVG Version: 6.00 Build 0)  -->
<svg version="1.1" id="Camada_1" xmlns="http://www.w3.org/2000/svg" xmlns:xlink="http://www.w3.org/1999/xlink" x="0px" y="0px"
	 viewBox="0 0 150 150" style="enable-background:new 0 0 150 150;" xml:space="preserve">
<style type="text/css">
	.st0{fill:#F93740;}
</style>
<title>2CAD36B7-FAC5-49A0-AC94-FE83DDCB4328</title>
<desc>Created with sketchtool.</desc>
<g id="Page-1">
	<g id="Grude-e-Desgrude:-Página-de-Vendas" transform="translate(-751.000000, -1486.000000)">
		<g id="square-bolinhas" transform="translate(751.000000, 1486.000000)">
			<path id="Fill-1" class="st0" d="M5,2.5C5,3.9,3.9,5,2.5,5S0,3.9,0,2.5S1.1,0,2.5,0S5,1.1,5,2.5"/>
			<path id="Fill-3" class="st0" d="M21.1,2.5C21.1,3.9,20,5,18.6,5c-1.4,0-2.5-1.1-2.5-2.5S17.2,0,18.6,0C20,0,21.1,1.1,21.1,2.5"
				/>
			<path id="Fill-5" class="st0" d="M37.2,2.5c0,1.4-1.1,2.5-2.5,2.5c-1.4,0-2.5-1.1-2.5-2.5S33.3,0,34.7,0
				C36.1,0,37.2,1.1,37.2,2.5"/>
			<path id="Fill-7" class="st0" d="M53.3,2.5c0,1.4-1.1,2.5-2.5,2.5c-1.4,0-2.5-1.1-2.5-2.5S49.5,0,50.8,0
				C52.2,0,53.3,1.1,53.3,2.5"/>
			<path id="Fill-9" class="st0" d="M69.4,2.5c0,1.4-1.1,2.5-2.5,2.5c-1.4,0-2.5-1.1-2.5-2.5S65.6,0,66.9,0
				C68.3,0,69.4,1.1,69.4,2.5"/>
			<path id="Fill-11" class="st0" d="M85.6,2.5c0,1.4-1.1,2.5-2.5,2.5c-1.4,0-2.5-1.1-2.5-2.5S81.7,0,83.1,0
				C84.4,0,85.6,1.1,85.6,2.5"/>
			<path id="Fill-13" class="st0" d="M101.7,2.5c0,1.4-1.1,2.5-2.5,2.5c-1.4,0-2.5-1.1-2.5-2.5S97.8,0,99.2,0
				C100.5,0,101.7,1.1,101.7,2.5"/>
			<path id="Fill-15" class="st0" d="M117.8,2.5c0,1.4-1.1,2.5-2.5,2.5c-1.4,0-2.5-1.1-2.5-2.5s1.1-2.5,2.5-2.5
				C116.7,0,117.8,1.1,117.8,2.5"/>
			<path id="Fill-17" class="st0" d="M133.9,2.5c0,1.4-1.1,2.5-2.5,2.5s-2.5-1.1-2.5-2.5S130,0,131.4,0S133.9,1.1,133.9,2.5"/>
			<path id="Fill-19" class="st0" d="M150,2.5c0,1.4-1.1,2.5-2.5,2.5S145,3.9,145,2.5s1.1-2.5,2.5-2.5S150,1.1,150,2.5"/>
			<path id="Fill-21" class="st0" d="M5,18.6c0,1.4-1.1,2.5-2.5,2.5S0,20,0,18.6c0-1.4,1.1-2.5,2.5-2.5S5,17.2,5,18.6"/>
			<path id="Fill-23" class="st0" d="M21.1,18.6c0,1.4-1.1,2.5-2.5,2.5c-1.4,0-2.5-1.1-2.5-2.5c0-1.4,1.1-2.5,2.5-2.5
				C20,16.1,21.1,17.2,21.1,18.6"/>
			<path id="Fill-25" class="st0" d="M37.2,18.6c0,1.4-1.1,2.5-2.5,2.5c-1.4,0-2.5-1.1-2.5-2.5c0-1.4,1.1-2.5,2.5-2.5
				C36.1,16.1,37.2,17.2,37.2,18.6"/>
			<path id="Fill-27" class="st0" d="M53.3,18.6c0,1.4-1.1,2.5-2.5,2.5c-1.4,0-2.5-1.1-2.5-2.5c0-1.4,1.1-2.5,2.5-2.5
				C52.2,16.1,53.3,17.2,53.3,18.6"/>
			<path id="Fill-29" class="st0" d="M69.4,18.6c0,1.4-1.1,2.5-2.5,2.5c-1.4,0-2.5-1.1-2.5-2.5c0-1.4,1.1-2.5,2.5-2.5
				C68.3,16.1,69.4,17.2,69.4,18.6"/>
			<path id="Fill-31" class="st0" d="M85.6,18.6c0,1.4-1.1,2.5-2.5,2.5c-1.4,0-2.5-1.1-2.5-2.5c0-1.4,1.1-2.5,2.5-2.5
				C84.4,16.1,85.6,17.2,85.6,18.6"/>
			<path id="Fill-33" class="st0" d="M101.7,18.6c0,1.4-1.1,2.5-2.5,2.5c-1.4,0-2.5-1.1-2.5-2.5c0-1.4,1.1-2.5,2.5-2.5
				C100.5,16.1,101.7,17.2,101.7,18.6"/>
			<path id="Fill-35" class="st0" d="M117.8,18.6c0,1.4-1.1,2.5-2.5,2.5c-1.4,0-2.5-1.1-2.5-2.5c0-1.4,1.1-2.5,2.5-2.5
				C116.7,16.1,117.8,17.2,117.8,18.6"/>
			<path id="Fill-37" class="st0" d="M133.9,18.6c0,1.4-1.1,2.5-2.5,2.5s-2.5-1.1-2.5-2.5c0-1.4,1.1-2.5,2.5-2.5
				S133.9,17.2,133.9,18.6"/>
			<path id="Fill-39" class="st0" d="M150,18.6c0,1.4-1.1,2.5-2.5,2.5S145,20,145,18.6c0-1.4,1.1-2.5,2.5-2.5S150,17.2,150,18.6"/>
			<path id="Fill-41" class="st0" d="M5,34.7c0,1.4-1.1,2.5-2.5,2.5S0,36.1,0,34.7c0-1.4,1.1-2.5,2.5-2.5S5,33.3,5,34.7"/>
			<path id="Fill-43" class="st0" d="M21.1,34.7c0,1.4-1.1,2.5-2.5,2.5c-1.4,0-2.5-1.1-2.5-2.5c0-1.4,1.1-2.5,2.5-2.5
				C20,32.2,21.1,33.3,21.1,34.7"/>
			<path id="Fill-45" class="st0" d="M37.2,34.7c0,1.4-1.1,2.5-2.5,2.5c-1.4,0-2.5-1.1-2.5-2.5c0-1.4,1.1-2.5,2.5-2.5
				C36.1,32.2,37.2,33.3,37.2,34.7"/>
			<path id="Fill-47" class="st0" d="M53.3,34.7c0,1.4-1.1,2.5-2.5,2.5c-1.4,0-2.5-1.1-2.5-2.5c0-1.4,1.1-2.5,2.5-2.5
				C52.2,32.2,53.3,33.3,53.3,34.7"/>
			<path id="Fill-49" class="st0" d="M69.4,34.7c0,1.4-1.1,2.5-2.5,2.5c-1.4,0-2.5-1.1-2.5-2.5c0-1.4,1.1-2.5,2.5-2.5
				C68.3,32.2,69.4,33.3,69.4,34.7"/>
			<path id="Fill-51" class="st0" d="M85.6,34.7c0,1.4-1.1,2.5-2.5,2.5c-1.4,0-2.5-1.1-2.5-2.5c0-1.4,1.1-2.5,2.5-2.5
				C84.4,32.2,85.6,33.3,85.6,34.7"/>
			<path id="Fill-53" class="st0" d="M101.7,34.7c0,1.4-1.1,2.5-2.5,2.5c-1.4,0-2.5-1.1-2.5-2.5c0-1.4,1.1-2.5,2.5-2.5
				C100.5,32.2,101.7,33.3,101.7,34.7"/>
			<path id="Fill-55" class="st0" d="M117.8,34.7c0,1.4-1.1,2.5-2.5,2.5c-1.4,0-2.5-1.1-2.5-2.5c0-1.4,1.1-2.5,2.5-2.5
				C116.7,32.2,117.8,33.3,117.8,34.7"/>
			<path id="Fill-57" class="st0" d="M133.9,34.7c0,1.4-1.1,2.5-2.5,2.5s-2.5-1.1-2.5-2.5c0-1.4,1.1-2.5,2.5-2.5
				S133.9,33.3,133.9,34.7"/>
			<path id="Fill-59" class="st0" d="M150,34.7c0,1.4-1.1,2.5-2.5,2.5s-2.5-1.1-2.5-2.5c0-1.4,1.1-2.5,2.5-2.5S150,33.3,150,34.7"/>
			<path id="Fill-61" class="st0" d="M5,50.8c0,1.4-1.1,2.5-2.5,2.5S0,52.2,0,50.8c0-1.4,1.1-2.5,2.5-2.5S5,49.5,5,50.8"/>
			<path id="Fill-63" class="st0" d="M21.1,50.8c0,1.4-1.1,2.5-2.5,2.5c-1.4,0-2.5-1.1-2.5-2.5c0-1.4,1.1-2.5,2.5-2.5
				C20,48.3,21.1,49.5,21.1,50.8"/>
			<path id="Fill-65" class="st0" d="M37.2,50.8c0,1.4-1.1,2.5-2.5,2.5c-1.4,0-2.5-1.1-2.5-2.5c0-1.4,1.1-2.5,2.5-2.5
				C36.1,48.3,37.2,49.5,37.2,50.8"/>
			<path id="Fill-67" class="st0" d="M53.3,50.8c0,1.4-1.1,2.5-2.5,2.5c-1.4,0-2.5-1.1-2.5-2.5c0-1.4,1.1-2.5,2.5-2.5
				C52.2,48.3,53.3,49.5,53.3,50.8"/>
			<path id="Fill-69" class="st0" d="M69.4,50.8c0,1.4-1.1,2.5-2.5,2.5c-1.4,0-2.5-1.1-2.5-2.5c0-1.4,1.1-2.5,2.5-2.5
				C68.3,48.3,69.4,49.5,69.4,50.8"/>
			<path id="Fill-71" class="st0" d="M85.6,50.8c0,1.4-1.1,2.5-2.5,2.5c-1.4,0-2.5-1.1-2.5-2.5c0-1.4,1.1-2.5,2.5-2.5
				C84.4,48.3,85.6,49.5,85.6,50.8"/>
			<path id="Fill-73" class="st0" d="M101.7,50.8c0,1.4-1.1,2.5-2.5,2.5c-1.4,0-2.5-1.1-2.5-2.5c0-1.4,1.1-2.5,2.5-2.5
				C100.5,48.3,101.7,49.5,101.7,50.8"/>
			<path id="Fill-75" class="st0" d="M117.8,50.8c0,1.4-1.1,2.5-2.5,2.5c-1.4,0-2.5-1.1-2.5-2.5c0-1.4,1.1-2.5,2.5-2.5
				C116.7,48.3,117.8,49.5,117.8,50.8"/>
			<path id="Fill-77" class="st0" d="M133.9,50.8c0,1.4-1.1,2.5-2.5,2.5s-2.5-1.1-2.5-2.5c0-1.4,1.1-2.5,2.5-2.5
				S133.9,49.5,133.9,50.8"/>
			<path id="Fill-79" class="st0" d="M150,50.8c0,1.4-1.1,2.5-2.5,2.5s-2.5-1.1-2.5-2.5c0-1.4,1.1-2.5,2.5-2.5S150,49.5,150,50.8"/>
			<path id="Fill-81" class="st0" d="M5,66.9c0,1.4-1.1,2.5-2.5,2.5S0,68.3,0,66.9c0-1.4,1.1-2.5,2.5-2.5S5,65.6,5,66.9"/>
			<path id="Fill-83" class="st0" d="M21.1,66.9c0,1.4-1.1,2.5-2.5,2.5c-1.4,0-2.5-1.1-2.5-2.5c0-1.4,1.1-2.5,2.5-2.5
				C20,64.4,21.1,65.6,21.1,66.9"/>
			<path id="Fill-85" class="st0" d="M37.2,66.9c0,1.4-1.1,2.5-2.5,2.5c-1.4,0-2.5-1.1-2.5-2.5c0-1.4,1.1-2.5,2.5-2.5
				C36.1,64.4,37.2,65.6,37.2,66.9"/>
			<path id="Fill-87" class="st0" d="M53.3,66.9c0,1.4-1.1,2.5-2.5,2.5c-1.4,0-2.5-1.1-2.5-2.5c0-1.4,1.1-2.5,2.5-2.5
				C52.2,64.4,53.3,65.6,53.3,66.9"/>
			<path id="Fill-89" class="st0" d="M69.4,66.9c0,1.4-1.1,2.5-2.5,2.5c-1.4,0-2.5-1.1-2.5-2.5c0-1.4,1.1-2.5,2.5-2.5
				C68.3,64.4,69.4,65.6,69.4,66.9"/>
			<path id="Fill-91" class="st0" d="M85.6,66.9c0,1.4-1.1,2.5-2.5,2.5c-1.4,0-2.5-1.1-2.5-2.5c0-1.4,1.1-2.5,2.5-2.5
				C84.4,64.4,85.6,65.6,85.6,66.9"/>
			<path id="Fill-93" class="st0" d="M101.7,66.9c0,1.4-1.1,2.5-2.5,2.5c-1.4,0-2.5-1.1-2.5-2.5c0-1.4,1.1-2.5,2.5-2.5
				C100.5,64.4,101.7,65.6,101.7,66.9"/>
			<path id="Fill-95" class="st0" d="M117.8,66.9c0,1.4-1.1,2.5-2.5,2.5c-1.4,0-2.5-1.1-2.5-2.5c0-1.4,1.1-2.5,2.5-2.5
				C116.7,64.4,117.8,65.6,117.8,66.9"/>
			<path id="Fill-97" class="st0" d="M133.9,66.9c0,1.4-1.1,2.5-2.5,2.5s-2.5-1.1-2.5-2.5c0-1.4,1.1-2.5,2.5-2.5
				S133.9,65.6,133.9,66.9"/>
			<path id="Fill-99" class="st0" d="M150,66.9c0,1.4-1.1,2.5-2.5,2.5s-2.5-1.1-2.5-2.5c0-1.4,1.1-2.5,2.5-2.5S150,65.6,150,66.9"/>
			<path id="Fill-101" class="st0" d="M5,83.1c0,1.4-1.1,2.5-2.5,2.5S0,84.4,0,83.1c0-1.4,1.1-2.5,2.5-2.5S5,81.7,5,83.1"/>
			<path id="Fill-103" class="st0" d="M21.1,83.1c0,1.4-1.1,2.5-2.5,2.5c-1.4,0-2.5-1.1-2.5-2.5c0-1.4,1.1-2.5,2.5-2.5
				C20,80.6,21.1,81.7,21.1,83.1"/>
			<path id="Fill-105" class="st0" d="M37.2,83.1c0,1.4-1.1,2.5-2.5,2.5c-1.4,0-2.5-1.1-2.5-2.5c0-1.4,1.1-2.5,2.5-2.5
				C36.1,80.6,37.2,81.7,37.2,83.1"/>
			<path id="Fill-107" class="st0" d="M53.3,83.1c0,1.4-1.1,2.5-2.5,2.5c-1.4,0-2.5-1.1-2.5-2.5c0-1.4,1.1-2.5,2.5-2.5
				C52.2,80.6,53.3,81.7,53.3,83.1"/>
			<path id="Fill-109" class="st0" d="M69.4,83.1c0,1.4-1.1,2.5-2.5,2.5c-1.4,0-2.5-1.1-2.5-2.5c0-1.4,1.1-2.5,2.5-2.5
				C68.3,80.6,69.4,81.7,69.4,83.1"/>
			<path id="Fill-111" class="st0" d="M85.6,83.1c0,1.4-1.1,2.5-2.5,2.5c-1.4,0-2.5-1.1-2.5-2.5c0-1.4,1.1-2.5,2.5-2.5
				C84.4,80.6,85.6,81.7,85.6,83.1"/>
			<path id="Fill-113" class="st0" d="M101.7,83.1c0,1.4-1.1,2.5-2.5,2.5c-1.4,0-2.5-1.1-2.5-2.5c0-1.4,1.1-2.5,2.5-2.5
				C100.5,80.6,101.7,81.7,101.7,83.1"/>
			<path id="Fill-115" class="st0" d="M117.8,83.1c0,1.4-1.1,2.5-2.5,2.5c-1.4,0-2.5-1.1-2.5-2.5c0-1.4,1.1-2.5,2.5-2.5
				C116.7,80.6,117.8,81.7,117.8,83.1"/>
			<path id="Fill-117" class="st0" d="M133.9,83.1c0,1.4-1.1,2.5-2.5,2.5s-2.5-1.1-2.5-2.5c0-1.4,1.1-2.5,2.5-2.5
				S133.9,81.7,133.9,83.1"/>
			<path id="Fill-119" class="st0" d="M150,83.1c0,1.4-1.1,2.5-2.5,2.5s-2.5-1.1-2.5-2.5c0-1.4,1.1-2.5,2.5-2.5S150,81.7,150,83.1"
				/>
			<path id="Fill-121" class="st0" d="M5,99.2c0,1.4-1.1,2.5-2.5,2.5S0,100.5,0,99.2c0-1.4,1.1-2.5,2.5-2.5S5,97.8,5,99.2"/>
			<path id="Fill-123" class="st0" d="M21.1,99.2c0,1.4-1.1,2.5-2.5,2.5c-1.4,0-2.5-1.1-2.5-2.5c0-1.4,1.1-2.5,2.5-2.5
				C20,96.7,21.1,97.8,21.1,99.2"/>
			<path id="Fill-125" class="st0" d="M37.2,99.2c0,1.4-1.1,2.5-2.5,2.5c-1.4,0-2.5-1.1-2.5-2.5c0-1.4,1.1-2.5,2.5-2.5
				C36.1,96.7,37.2,97.8,37.2,99.2"/>
			<path id="Fill-127" class="st0" d="M53.3,99.2c0,1.4-1.1,2.5-2.5,2.5c-1.4,0-2.5-1.1-2.5-2.5c0-1.4,1.1-2.5,2.5-2.5
				C52.2,96.7,53.3,97.8,53.3,99.2"/>
			<path id="Fill-129" class="st0" d="M69.4,99.2c0,1.4-1.1,2.5-2.5,2.5c-1.4,0-2.5-1.1-2.5-2.5c0-1.4,1.1-2.5,2.5-2.5
				C68.3,96.7,69.4,97.8,69.4,99.2"/>
			<path id="Fill-131" class="st0" d="M85.6,99.2c0,1.4-1.1,2.5-2.5,2.5c-1.4,0-2.5-1.1-2.5-2.5c0-1.4,1.1-2.5,2.5-2.5
				C84.4,96.7,85.6,97.8,85.6,99.2"/>
			<path id="Fill-133" class="st0" d="M101.7,99.2c0,1.4-1.1,2.5-2.5,2.5c-1.4,0-2.5-1.1-2.5-2.5c0-1.4,1.1-2.5,2.5-2.5
				C100.5,96.7,101.7,97.8,101.7,99.2"/>
			<path id="Fill-135" class="st0" d="M117.8,99.2c0,1.4-1.1,2.5-2.5,2.5c-1.4,0-2.5-1.1-2.5-2.5c0-1.4,1.1-2.5,2.5-2.5
				C116.7,96.7,117.8,97.8,117.8,99.2"/>
			<path id="Fill-137" class="st0" d="M133.9,99.2c0,1.4-1.1,2.5-2.5,2.5s-2.5-1.1-2.5-2.5c0-1.4,1.1-2.5,2.5-2.5
				S133.9,97.8,133.9,99.2"/>
			<path id="Fill-139" class="st0" d="M150,99.2c0,1.4-1.1,2.5-2.5,2.5s-2.5-1.1-2.5-2.5c0-1.4,1.1-2.5,2.5-2.5S150,97.8,150,99.2"
				/>
			<path id="Fill-141" class="st0" d="M5,115.3c0,1.4-1.1,2.5-2.5,2.5S0,116.7,0,115.3c0-1.4,1.1-2.5,2.5-2.5S5,113.9,5,115.3"/>
			<path id="Fill-143" class="st0" d="M21.1,115.3c0,1.4-1.1,2.5-2.5,2.5c-1.4,0-2.5-1.1-2.5-2.5c0-1.4,1.1-2.5,2.5-2.5
				C20,112.8,21.1,113.9,21.1,115.3"/>
			<path id="Fill-145" class="st0" d="M37.2,115.3c0,1.4-1.1,2.5-2.5,2.5c-1.4,0-2.5-1.1-2.5-2.5c0-1.4,1.1-2.5,2.5-2.5
				C36.1,112.8,37.2,113.9,37.2,115.3"/>
			<path id="Fill-147" class="st0" d="M53.3,115.3c0,1.4-1.1,2.5-2.5,2.5c-1.4,0-2.5-1.1-2.5-2.5c0-1.4,1.1-2.5,2.5-2.5
				C52.2,112.8,53.3,113.9,53.3,115.3"/>
			<path id="Fill-149" class="st0" d="M69.4,115.3c0,1.4-1.1,2.5-2.5,2.5c-1.4,0-2.5-1.1-2.5-2.5c0-1.4,1.1-2.5,2.5-2.5
				C68.3,112.8,69.4,113.9,69.4,115.3"/>
			<path id="Fill-151" class="st0" d="M85.6,115.3c0,1.4-1.1,2.5-2.5,2.5c-1.4,0-2.5-1.1-2.5-2.5c0-1.4,1.1-2.5,2.5-2.5
				C84.4,112.8,85.6,113.9,85.6,115.3"/>
			<path id="Fill-153" class="st0" d="M101.7,115.3c0,1.4-1.1,2.5-2.5,2.5c-1.4,0-2.5-1.1-2.5-2.5c0-1.4,1.1-2.5,2.5-2.5
				C100.5,112.8,101.7,113.9,101.7,115.3"/>
			<path id="Fill-155" class="st0" d="M117.8,115.3c0,1.4-1.1,2.5-2.5,2.5c-1.4,0-2.5-1.1-2.5-2.5c0-1.4,1.1-2.5,2.5-2.5
				C116.7,112.8,117.8,113.9,117.8,115.3"/>
			<path id="Fill-157" class="st0" d="M133.9,115.3c0,1.4-1.1,2.5-2.5,2.5s-2.5-1.1-2.5-2.5c0-1.4,1.1-2.5,2.5-2.5
				S133.9,113.9,133.9,115.3"/>
			<path id="Fill-159" class="st0" d="M150,115.3c0,1.4-1.1,2.5-2.5,2.5s-2.5-1.1-2.5-2.5c0-1.4,1.1-2.5,2.5-2.5
				S150,113.9,150,115.3"/>
			<path id="Fill-161" class="st0" d="M5,131.4c0,1.4-1.1,2.5-2.5,2.5S0,132.8,0,131.4s1.1-2.5,2.5-2.5S5,130,5,131.4"/>
			<path id="Fill-163" class="st0" d="M21.1,131.4c0,1.4-1.1,2.5-2.5,2.5c-1.4,0-2.5-1.1-2.5-2.5s1.1-2.5,2.5-2.5
				C20,128.9,21.1,130,21.1,131.4"/>
			<path id="Fill-165" class="st0" d="M37.2,131.4c0,1.4-1.1,2.5-2.5,2.5c-1.4,0-2.5-1.1-2.5-2.5s1.1-2.5,2.5-2.5
				C36.1,128.9,37.2,130,37.2,131.4"/>
			<path id="Fill-167" class="st0" d="M53.3,131.4c0,1.4-1.1,2.5-2.5,2.5c-1.4,0-2.5-1.1-2.5-2.5s1.1-2.5,2.5-2.5
				C52.2,128.9,53.3,130,53.3,131.4"/>
			<path id="Fill-169" class="st0" d="M69.4,131.4c0,1.4-1.1,2.5-2.5,2.5c-1.4,0-2.5-1.1-2.5-2.5s1.1-2.5,2.5-2.5
				C68.3,128.9,69.4,130,69.4,131.4"/>
			<path id="Fill-171" class="st0" d="M85.6,131.4c0,1.4-1.1,2.5-2.5,2.5c-1.4,0-2.5-1.1-2.5-2.5s1.1-2.5,2.5-2.5
				C84.4,128.9,85.6,130,85.6,131.4"/>
			<path id="Fill-173" class="st0" d="M101.7,131.4c0,1.4-1.1,2.5-2.5,2.5c-1.4,0-2.5-1.1-2.5-2.5s1.1-2.5,2.5-2.5
				C100.5,128.9,101.7,130,101.7,131.4"/>
			<path id="Fill-175" class="st0" d="M117.8,131.4c0,1.4-1.1,2.5-2.5,2.5c-1.4,0-2.5-1.1-2.5-2.5s1.1-2.5,2.5-2.5
				C116.7,128.9,117.8,130,117.8,131.4"/>
			<path id="Fill-177" class="st0" d="M133.9,131.4c0,1.4-1.1,2.5-2.5,2.5s-2.5-1.1-2.5-2.5s1.1-2.5,2.5-2.5S133.9,130,133.9,131.4"
				/>
			<path id="Fill-179" class="st0" d="M150,131.4c0,1.4-1.1,2.5-2.5,2.5s-2.5-1.1-2.5-2.5s1.1-2.5,2.5-2.5S150,130,150,131.4"/>
			<path id="Fill-181" class="st0" d="M5,147.5c0,1.4-1.1,2.5-2.5,2.5S0,148.9,0,147.5s1.1-2.5,2.5-2.5S5,146.1,5,147.5"/>
			<path id="Fill-183" class="st0" d="M21.1,147.5c0,1.4-1.1,2.5-2.5,2.5c-1.4,0-2.5-1.1-2.5-2.5s1.1-2.5,2.5-2.5
				C20,145,21.1,146.1,21.1,147.5"/>
			<path id="Fill-185" class="st0" d="M37.2,147.5c0,1.4-1.1,2.5-2.5,2.5c-1.4,0-2.5-1.1-2.5-2.5s1.1-2.5,2.5-2.5
				C36.1,145,37.2,146.1,37.2,147.5"/>
			<path id="Fill-187" class="st0" d="M53.3,147.5c0,1.4-1.1,2.5-2.5,2.5c-1.4,0-2.5-1.1-2.5-2.5s1.1-2.5,2.5-2.5
				C52.2,145,53.3,146.1,53.3,147.5"/>
			<path id="Fill-189" class="st0" d="M69.4,147.5c0,1.4-1.1,2.5-2.5,2.5c-1.4,0-2.5-1.1-2.5-2.5s1.1-2.5,2.5-2.5
				C68.3,145,69.4,146.1,69.4,147.5"/>
			<path id="Fill-191" class="st0" d="M85.6,147.5c0,1.4-1.1,2.5-2.5,2.5c-1.4,0-2.5-1.1-2.5-2.5s1.1-2.5,2.5-2.5
				C84.4,145,85.6,146.1,85.6,147.5"/>
			<path id="Fill-193" class="st0" d="M101.7,147.5c0,1.4-1.1,2.5-2.5,2.5c-1.4,0-2.5-1.1-2.5-2.5s1.1-2.5,2.5-2.5
				C100.5,145,101.7,146.1,101.7,147.5"/>
			<path id="Fill-195" class="st0" d="M117.8,147.5c0,1.4-1.1,2.5-2.5,2.5c-1.4,0-2.5-1.1-2.5-2.5s1.1-2.5,2.5-2.5
				C116.7,145,117.8,146.1,117.8,147.5"/>
			<path id="Fill-197" class="st0" d="M133.9,147.5c0,1.4-1.1,2.5-2.5,2.5s-2.5-1.1-2.5-2.5s1.1-2.5,2.5-2.5
				S133.9,146.1,133.9,147.5"/>
			<path id="Fill-199" class="st0" d="M150,147.5c0,1.4-1.1,2.5-2.5,2.5s-2.5-1.1-2.5-2.5s1.1-2.5,2.5-2.5S150,146.1,150,147.5"/>
		</g>
	</g>
</g>
</svg>
