<svg xmlns="http://www.w3.org/2000/svg" viewBox="0 0 184.89 95.37"><defs><style>.cls-1{fill:#358cc9;}.cls-2{fill:#2b3d4e;}</style></defs><title>Ativo 1</title><g id="Camada_2" data-name="Camada 2"><g id="Tipografia"><g id="_Grupo_" data-name="&lt;Grupo&gt;"><path id="_Caminho_composto_" data-name="&lt;Caminho composto&gt;" class="cls-1" d="M137.82,70.61H126V95.37H94.42V0h46.12c25.85,0,40.68,12.38,40.68,34.15,0,13.87-5.31,24.21-15.1,30.2l18.78,31H149.24Zm2.72-23.95c6.8,0,10.75-4.21,10.75-11.56,0-7.07-3.95-11.15-10.75-11.15H126V46.66"/></g><path id="_Caminho_composto_2" data-name="&lt;Caminho composto&gt;" class="cls-2" d="M51.84,0H94.42V95.37H53.06C20.82,95.37,0,76.6,0,47.62S20.41,0,51.84,0ZM49.2,63.89H63.25V31.49H48.78c-10.68,0-17.61,6.33-17.61,16.18S38.24,63.89,49.2,63.89Z"/></g></g></svg>