<?xml version="1.0" encoding="utf-8"?>
<!-- Generator: Adobe Illustrator 21.1.0, SVG Export Plug-In . SVG Version: 6.00 Build 0)  -->
<svg version="1.1" id="Camada_1" xmlns="http://www.w3.org/2000/svg" xmlns:xlink="http://www.w3.org/1999/xlink" x="0px" y="0px"
	 viewBox="0 0 184.9 95.4" style="enable-background:new 0 0 184.9 95.4;" xml:space="preserve">
<style type="text/css">
	.st0{fill:#FFFFFF;}
</style>
<title>Ativo 1</title>
<g id="Camada_2">
	<g id="Tipografia">
		<g id="_Grupo_">
			<path id="_Caminho_composto_" class="st0" d="M137.8,70.6H126v24.8H94.4V0h46.1c25.9,0,40.7,12.4,40.7,34.2
				c0,13.9-5.3,24.2-15.1,30.2l18.8,31h-35.7L137.8,70.6z M140.5,46.7c6.8,0,10.8-4.2,10.8-11.6c0-7.1-3.9-11.1-10.8-11.1H126v22.7"
				/>
		</g>
		<path id="_Caminho_composto_2" class="st0" d="M51.8,0h42.6v95.4H53.1C20.8,95.4,0,76.6,0,47.6S20.4,0,51.8,0z M49.2,63.9h14V31.5
			H48.8c-10.7,0-17.6,6.3-17.6,16.2S38.2,63.9,49.2,63.9z"/>
	</g>
</g>
</svg>
